<svg xmlns="http://www.w3.org/2000/svg" xmlns:xlink="http://www.w3.org/1999/xlink" width="1080" height="1080" viewBox="0 0 1080 1080" fill="none">
<path d="M648.18 343.24C572.07 341.16 450.48 400.93 386.44 480.76C288.28 603.11 193.91 543.14 102.59 626C33.52 688.69 11.86 824.06 114.59 894.27C217.32 964.48 394.8 889.14 499.7 931.68C604.6 974.22 698.54 1009.13 805.24 993.06C927.75 974.65 1035.88 864 1015.9 666.26C990.35 413.29 810.63 347.67 648.18 343.24Z"   fill="#E1ECFF" >
</path>
<path d="M940.56 710.67C940.56 710.67 1004.45 738.87 1008.2 793.67C1011.53 842.35 985.91 892.32 940.56 915.67C888.75 942.29 866.25 898 882.65 870C899.05 842 990.27 799 928.26 743.94C928.26 720.41 940.56 710.67 940.56 710.67Z"   fill="#F774B9" >
</path>
<path d="M511.9 675C511.9 675 509.96 717.4 506.46 722.45C502.96 727.5 471.46 736.26 469.72 746.18C467.98 756.1 468.17 773.41 484.11 776.52C500.05 779.63 534.11 778.86 542.84 778.52C551.57 778.18 569.67 753.62 577.64 697.61C530.19 675.94 511.9 675 511.9 675Z"   fill="#F774B9" >
</path>
<path d="M686.38 148C640.52 142.61 594.65 144.41 594.65 144.41C594.65 144.41 570.82 99.05 554.17 88.55C537.52 78.05 526.49 83.17 522.4 94.19C518.31 105.21 517.27 149.53 517.27 149.53C517.27 149.53 471.15 192.32 453.73 239.72C436.31 287.12 432.46 383.21 542.38 396C652.3 408.79 765.56 372.45 814 339.65C798.1 259.45 775.55 154.91 770.42 126C765.29 97.09 749.42 82.75 731.99 82.85C714.56 82.95 693 123.4 686.38 148Z"   fill="#FF97C9" >
</path>
<g opacity="0.3">
<path d="M698.63 150.47C698.63 150.47 713.8 101.53 727 101.79C738.82 102.02 744.29 138.79 745.28 156.9C745.35 158.204 744.808 159.467 743.814 160.314C742.819 161.161 741.487 161.496 740.21 161.22C724.09 157.78 698.63 150.47 698.63 150.47Z"   fill="#FFFFFF" >
</path>
</g>
<g opacity="0.3">
<path d="M517 149.7C517 149.7 515.76 98.09 526.74 94.23C537.89 90.3 555.74 122.94 562.96 139.61C563.474 140.811 563.399 142.183 562.759 143.322C562.118 144.46 560.984 145.236 559.69 145.42C543.39 147.76 517 149.7 517 149.7Z"   fill="#FFFFFF" >
</path>
</g>
<path d="M502.35 674.8C487.49 614.58 532.35 490.08 542.35 461.62C552.58 432.42 557.21 416.26 551.57 389.87C588.76 379.37 814 339.65 814 339.65C821.82 371.17 868.32 454.95 896.76 501.08C925.2 547.21 950.32 605.08 948.76 678.21C947.2 751.34 919.62 771.31 881.4 782.41C843.18 793.51 819.62 790.41 797.4 793.35C775.18 796.29 751.97 805.82 736.93 793.35C721.89 780.88 714.04 773.53 697.3 782.24C680.56 790.95 638.03 788.56 626.93 785.66C615.83 782.76 610.36 760.55 628.93 749.1C598.52 758.84 520.93 749.92 502.35 674.8Z"   fill="#FF97C9" >
</path>
<path d="M626.93 785.66C615.83 782.76 610.36 760.55 628.93 749.1C598.52 758.84 520.93 749.92 502.35 674.8C487.49 614.58 532.35 490.08 542.35 461.62C552.58 432.42 557.21 416.26 551.57 389.87C588.76 379.37 814 339.65 814 339.65C821.82 371.17 868.32 454.95 896.76 501.08C925.2 547.21 950.32 605.08 948.76 678.21C947.2 751.34 919.62 771.31 881.4 782.41C843.18 793.51 819.62 790.41 797.4 793.35C775.18 796.29 751.97 805.82 736.93 793.35C721.89 780.88 714.04 773.53 697.3 782.24C680.56 790.95 638.03 788.56 626.93 785.66Z"   fill="#FF97C9" >
</path>
<g mask="url(#mask-WnHEr7nL5htXT1qmRmslj)">
<path d="M845.75 411.32C845.75 411.32 805.65 455 814 499.54C819.8 530.6 858.07 547.71 862.17 574.36C866.27 601.01 895.49 645.36 944.68 622.44C938.51 546.17 845.75 411.32 845.75 411.32Z"   fill="#F774B9" >
</path>
</g>
<g mask="url(#mask-WnHEr7nL5htXT1qmRmslj)" style="mix-blend-mode:multiply" opacity="0.19">
<path d="M912.89 525.74C912.89 525.74 945.73 726 821.69 791.63C908.03 843.98 1025.63 685.63 1025.63 685.63L912.89 525.74Z"   fill="#FF97C9" >
</path>
</g>
<g mask="url(#mask-WnHEr7nL5htXT1qmRmslj)">
<path d="M730.8 699.57C730.8 699.57 732.8 742.44 770.08 749.45C765.3 759.18 731.31 752.69 729.77 786.68C723.45 782.82 715.59 773.53 697.31 782.24C722.08 740.56 730.8 699.57 730.8 699.57Z"   fill="#F774B9" >
</path>
</g>
<g mask="url(#mask-WnHEr7nL5htXT1qmRmslj)" opacity="0.3">
<path d="M540 435.93C540 435.93 552.76 424.59 590 429.93C627.24 435.27 674.59 542.42 668.53 606.44C662.47 670.46 670.41 744.38 611.18 758.29C552.12 781.22 425 694 425 694L540 435.93Z"   fill="#FFFFFF" >
</path>
</g>
<path d="M659.59 718.35C664.1 699.11 666.18 679.35 668.13 659.7C672.13 618.91 676.26 578.03 676.2 536.98C676.2 531.19 667.2 531.18 667.2 536.98L667.2 536.91C667.26 574.02 663.89 610.99 660.28 647.91C658.49 666.27 656.86 684.69 653.58 702.91C651.16 716.29 648.23 740.28 630.99 742.5C625.33 743.23 625.25 752.24 630.99 751.5C648.27 749.27 655.99 733.71 659.59 718.35Z" fill-rule="evenodd"  fill="#F774B9" >
</path>
<path d="M713.68 736.73C711.38 743.577 709.027 750.41 706.62 757.23C704.29 763.85 702.04 770.61 697.22 775.89C693.32 780.16 699.67 786.54 703.58 782.25C713.06 771.87 716.43 756.58 720.85 743.59C725.85 729.01 730.53 714.34 734.78 699.53C743.28 669.9 749.78 639.71 752.72 609C753.28 603.24 744.27 603.28 743.72 609C740.91 638.27 734.64 667.07 726.62 695.33C722.62 709.24 718.29 723.03 713.68 736.73Z"   fill="#F774B9" >
</path>
<path d="M771.26 626.48C778.31 620.3 785.5 614.48 793.99 610.38C799.21 607.87 794.65 600.11 789.45 602.61L789.47 602.6C775.47 609.32 762.23 620.99 751.93 632.51C741.63 644.03 735.62 658.21 732.24 673.12C728.86 688.03 725.68 705.43 731.51 720.12C736.43 732.51 746.4 742.46 758.1 748.63C774.17 757.11 792.72 758.69 810.59 758.42C816.37 758.34 816.39 749.34 810.59 749.42C792.67 749.69 773.7 748.22 758.21 738.28C743.55 728.87 736.29 714.28 737.61 696.95C738.93 679.62 742.93 660.95 752.61 646.23C757.61 638.6 764.44 632.45 771.26 626.48Z"   fill="#F774B9" >
</path>
<path d="M774.6 747.58C762.99 752.08 750.9 756 739.6 761.24C730.879 765.173 725.597 774.189 726.43 783.72C726.94 789.44 735.94 789.49 735.43 783.72C734.53 773.64 741.51 770.01 749.69 766.84L777 756.26C782.35 754.19 780 745.48 774.61 747.58L774.6 747.58Z"   fill="#F774B9" >
</path>
<path d="M631 764.78C628.396 770.325 627.292 776.455 627.8 782.56C628.33 788.28 637.33 788.34 636.8 782.56C636.295 778.048 636.985 773.482 638.8 769.32C639.8 767.09 639.43 764.51 637.19 763.17C635.27 762.02 632.03 762.57 631.03 764.78L631 764.78Z"   fill="#F774B9" >
</path>
<path d="M660.86 765.32C657.77 771.25 657.53 777.66 657.73 784.21C657.9 789.99 666.9 790.01 666.73 784.21C666.58 779.37 666.33 774.29 668.63 769.87C671.3 764.73 663.54 760.18 660.86 765.32Z"   fill="#F774B9" >
</path>
<path d="M553.15 398.65C553.15 398.65 692.53 410.37 813.98 339.65C820.56 358.65 829.53 378.85 829.53 378.85C829.53 378.85 708.71 452.18 551.38 432.61C545.73 423.29 553.15 398.65 553.15 398.65Z"   fill="#738DE0" >
</path>
<path d="M493.19 246.21C496.73 243.11 526.75 242.37 529.91 244.34C533.07 246.31 529.57 267.57 511.55 267.57C493.53 267.57 490.45 248.61 493.19 246.21Z"   fill="#1C3177" >
</path>
<path d="M622.32 246.21C625.87 243.11 655.89 242.37 659.05 244.34C662.21 246.31 658.71 267.57 640.69 267.57C622.67 267.57 619.59 248.61 622.32 246.21Z"   fill="#1C3177" >
</path>
<path    stroke="rgba(28, 49, 119, 1.00)" stroke-width="9"  stroke-linecap="round"  d="M557.93 333C557.93 333 567.32 309.26 572.93 309.77C578.54 310.28 591.41 333 591.41 333">
</path>
<path d="M429.13 292.91C441.085 292.45 453.057 292.65 464.99 293.51C470.77 293.93 470.75 284.93 464.99 284.51C453.057 283.65 441.085 283.45 429.13 283.91C423.36 284.13 423.33 293.13 429.13 292.91Z"   fill="#F774B9" >
</path>
<path d="M433.14 337.34C443.092 332.881 453.273 328.952 463.64 325.57C469.12 323.78 466.78 315.09 461.25 316.9C450.152 320.543 439.253 324.769 428.6 329.56C423.33 331.93 427.9 339.69 433.14 337.34Z"   fill="#F774B9" >
</path>
<path d="M678.8 294.67C688.682 288.701 699.025 283.531 709.73 279.21C715.04 277.08 712.73 268.38 707.34 270.53C695.895 275.096 684.833 280.57 674.26 286.9C669.26 289.9 673.82 297.66 678.8 294.67Z"   fill="#F774B9" >
</path>
<path d="M682.27 319.83C692.51 320.44 702.71 321.47 712.86 322.98C718.52 323.82 720.97 315.15 715.25 314.3C704.25 312.67 693.31 311.49 682.25 310.83C676.46 310.48 676.48 319.48 682.25 319.83L682.27 319.83Z"   fill="#F774B9" >
</path>
<path d="M567.36 146.58C575.638 145.681 583.971 145.41 592.29 145.77C598.08 146.02 598.07 137.02 592.29 136.77C583.971 136.41 575.638 136.681 567.36 137.58C561.67 138.2 561.6 147.21 567.36 146.58Z"   fill="#F774B9" >
</path>
<path d="M690.22 150.16C696.211 150.264 702.13 151.488 707.67 153.77C713.04 155.93 715.37 147.23 710.06 145.09C703.748 142.56 697.02 141.227 690.22 141.16C684.43 141.07 684.43 150.07 690.22 150.16Z"   fill="#F774B9" >
</path>
<path d="M585.77 455.54C585.77 469.933 573.306 481.6 557.93 481.6C542.554 481.6 530.09 469.933 530.09 455.54C530.09 441.147 542.554 429.48 557.93 429.48C573.306 429.48 585.77 441.147 585.77 455.54Z"   fill="#FFD3B3" >
</path>
<path d="M585.77 455.54C585.77 469.933 573.306 481.6 557.93 481.6C542.554 481.6 530.09 469.933 530.09 455.54C530.09 441.147 542.554 429.48 557.93 429.48C573.306 429.48 585.77 441.147 585.77 455.54Z"   fill="#FFD3B3" >
</path>
<g mask="url(#mask-3t51OtbmKKXlhwOs4aVqK)">
<path d="M555.857 446.19C562.802 447.128 568.009 451.025 567.487 454.894C566.964 458.764 560.91 461.14 553.965 460.203C547.019 459.265 541.813 455.368 542.335 451.498C542.858 447.629 548.912 445.252 555.857 446.19Z"   fill="#1C3177" >
</path>
</g>
<g mask="url(#mask-3t51OtbmKKXlhwOs4aVqK)">
<path    stroke="rgba(28, 49, 119, 1.00)" stroke-width="7"    d="M554.93 454.1C551.297 463.622 550.181 473.921 551.69 484">
</path>
</g>
<g opacity="0.58">
<path d="M265.34 835.24C314.33 835.24 377.68 827.63 404.43 811.59C431.18 795.55 410.62 780.33 401.33 776.11C392.04 771.89 383.03 770.9 385.56 764.29C388.09 757.68 399.56 738.42 382.65 723.55C354 698.41 315.09 706.67 290.82 704.11C268.17 701.73 226.44 702.72 203.92 708.57C183.4 713.9 163.92 737.57 194.92 748.57C225.92 759.57 200.13 773.06 158.92 775.03C117.71 777 99.23 804.17 128.23 819.24C157.23 834.31 216.35 835.24 265.34 835.24Z"   fill="#99ADF9" >
</path>
</g>
<path d="M183 798.98L247.2 871.55L282.07 856.45L256.85 843.87L264.79 808.39L183 798.98L183 798.98Z" fill-rule="evenodd"  fill="#738DE0" >
</path>
<path d="M314.29 809.18L342.82 782.9L358.21 811.8L314.29 809.18L314.29 809.18Z" fill-rule="evenodd"  fill="#738DE0" >
</path>
<path d="M232.53 649.28L414.89 669.19C414.89 669.19 434.98 716.5 413.3 750.29L274.3 758.95L284.82 729.29L261.55 721.41L279.85 680.71L232.53 649.28Z"   fill="#738DE0" >
</path>
<defs>
<mask id="mask-WnHEr7nL5htXT1qmRmslj" style="mask-type:alpha" maskUnits="userSpaceOnUse">
<path d="M626.93 785.66C615.83 782.76 610.36 760.55 628.93 749.1C598.52 758.84 520.93 749.92 502.35 674.8C487.49 614.58 532.35 490.08 542.35 461.62C552.58 432.42 557.21 416.26 551.57 389.87C588.76 379.37 814 339.65 814 339.65C821.82 371.17 868.32 454.95 896.76 501.08C925.2 547.21 950.32 605.08 948.76 678.21C947.2 751.34 919.62 771.31 881.4 782.41C843.18 793.51 819.62 790.41 797.4 793.35C775.18 796.29 751.97 805.82 736.93 793.35C721.89 780.88 714.04 773.53 697.3 782.24C680.56 790.95 638.03 788.56 626.93 785.66Z"   fill="#FF97C9" >
</path>
</mask>
<mask id="mask-3t51OtbmKKXlhwOs4aVqK" style="mask-type:alpha" maskUnits="userSpaceOnUse">
<path d="M585.77 455.54C585.77 469.933 573.306 481.6 557.93 481.6C542.554 481.6 530.09 469.933 530.09 455.54C530.09 441.147 542.554 429.48 557.93 429.48C573.306 429.48 585.77 441.147 585.77 455.54Z"   fill="#FFD3B3" >
</path>
</mask>
</defs>
</svg>
