<?xml version="1.0" standalone="no"?><!DOCTYPE svg PUBLIC "-//W3C//DTD SVG 1.1//EN" "http://www.w3.org/Graphics/SVG/1.1/DTD/svg11.dtd"><svg t="1725689488340" class="icon" viewBox="0 0 1024 1024" version="1.1" xmlns="http://www.w3.org/2000/svg" p-id="5824" id="mx_n_1725689488341" data-spm-anchor-id="a313x.search_index.0.i9.3f7a3a814frIO6" xmlns:xlink="http://www.w3.org/1999/xlink" width="200" height="200"><path d="M513.706667 826.794667c-129.109333 0-210.432-64.170667-229.12-180.821334-1.194667-9.813333-12.373333-140.629333 23.04-257.365333 3.072-10.154667 15.274667-13.994667 23.722666-7.594667 34.048 25.685333 81.493333 45.994667 107.349334 51.456 10.24 2.133333 20.650667-2.133333 26.453333-10.752 22.016-32.768 82.602667-115.456 162.901333-165.12 6.912-4.266667 15.274667 2.730667 12.544 10.410667-47.36 133.717333-38.144 240.981333-24.490666 302.762667 6.229333 28.16 39.936 39.765333 61.866666 21.077333l43.861334-37.12c8.021333-6.826667 20.309333-1.109333 20.309333 9.386667v93.610666c0 84.224-115.285333 170.069333-228.437333 170.069334z" fill="#64EDAC" p-id="5825"></path><path d="M555.690667 633.088c-18.773333 0-34.133333-15.36-34.133334-34.133333v-34.133334c0-18.773333 15.36-34.133333 34.133334-34.133333s34.133333 15.36 34.133333 34.133333v34.133334c0 18.773333-15.36 34.133333-34.133333 34.133333zM344.064 633.088c-18.773333 0-34.133333-15.36-34.133333-34.133333v-34.133334c0-18.773333 15.36-34.133333 34.133333-34.133333s34.133333 15.36 34.133333 34.133333v34.133334c0 18.773333-15.36 34.133333-34.133333 34.133333z" fill="#333C4F" p-id="5826"></path><path d="M513.706667 937.728c-182.442667 0-312.32-105.642667-338.944-275.712-1.621333-12.288-35.925333-283.733333 108.629333-455.338667 4.778667-5.632 11.008-10.069333 18.261333-11.690666 18.090667-4.096 34.816 5.973333 40.533334 21.845333 18.944 53.845333 43.349333 79.786667 60.416 92.245333 0.426667 0.341333 1.024 0.170667 1.365333-0.256 33.877333-54.528 125.44-163.242667 339.370667-221.354666 12.544-3.413333 25.941333 0.597333 34.474666 10.325333a34.167467 34.167467 0 0 1 6.058667 35.498667c-33.109333 81.066667-42.666667 188.842667-45.141333 259.498666 0 0.853333 0.938667 1.28 1.536 0.768 14.677333-12.117333 32.938667-27.221333 55.466666-45.909333 8.106667-6.741333 18.688-10.325333 29.098667-8.448 16.725333 3.072 28.245333 17.493333 28.245333 33.621333v283.904c0 160.853333-179.2 281.002667-339.370666 281.002667zM304.298667 297.813333a0.9984 0.9984 0 0 0-1.706667 0c-85.930667 148.821333-60.586667 352.085333-60.245333 354.389334 21.248 135.68 122.794667 217.258667 271.36 217.258666 125.354667 0 271.104-92.928 271.104-212.736V447.402667c0-0.853333-1.024-1.194667-1.621334-0.682667-46.592 38.570667-56.746667 47.104-56.832 47.274667a34.133333 34.133333 0 0 1-56.149333-24.576c-0.341333-7.509333-6.314667-160.170667 28.586667-294.656 0.170667-0.768-0.512-1.365333-1.28-1.109334-199.68 73.130667-246.442667 190.805333-246.869334 192.085334a34.218667 34.218667 0 0 1-36.693333 21.76c-7.424-1.194667-64.085333-11.52-109.653333-89.685334z" fill="#333C4F" p-id="5827"></path></svg>