<svg xmlns="http://www.w3.org/2000/svg" xmlns:xlink="http://www.w3.org/1999/xlink" width="24" height="24" viewBox="0 0 24 24" fill="none">
<path   fill="rgba(21, 21, 21, 1)" style="mix-blend-mode:normal" d="M16 8L16 10.8284L15 10.8284L15 8L16 8ZM15.5 11.3284L12.6716 11.3284L12.6716 10.3284L15.5 10.3284L15.5 11.3284ZM15.0797 11.0992M15.0797 11.0992Q14.9988 10.9736 14.8415 10.7739Q14.5216 10.3676 14.1592 10.0301Q13.0532 9 12 9L12 8.5L12 9L12 8.5L12 9Q10.1729 9 9.40485 10.0459Q9.17043 10.3652 9.05896 10.7489Q9.00587 10.9316 8.99883 11.0342L8.00117 10.9658Q8.01558 10.7559 8.09867 10.4699Q8.25956 9.91608 8.59883 9.45406Q9.07385 8.80716 9.83108 8.44059Q10.7412 8 12 8L12 8L12 8Q13.4468 8 14.8408 9.29833Q15.2596 9.68842 15.6272 10.1553Q15.8137 10.3922 15.9203 10.5576L15.0797 11.0992ZM15.5 11.3284L15.5 10.8284L16 10.8284L16 11.3284L15.5 11.3284Z">
</path>
<path   fill="rgba(21, 21, 21, 1)" style="mix-blend-mode:normal" d="M8 16L8 13.1716L9 13.1716L9 16L8 16ZM8.5 12.6716L11.3284 12.6716L11.3284 13.6716L8.5 13.6716L8.5 12.6716ZM8.92033 12.9008M8.92033 12.9008Q9.00125 13.0264 9.15847 13.2261Q9.47837 13.6324 9.84078 13.9699Q10.9468 15 12 15L12 15.5L12 15L12 15.5L12 15Q13.8271 15 14.5951 13.9541Q14.8296 13.6348 14.941 13.2511Q14.9941 13.0684 15.0012 12.9658L15.9988 13.0342Q15.9844 13.2441 15.9013 13.5301Q15.7404 14.0839 15.4012 14.5459Q14.9261 15.1928 14.1689 15.5594Q13.2588 16 12 16L12 16L12 16Q10.5532 16 9.15922 14.7017Q8.74038 14.3116 8.37278 13.8447Q8.18625 13.6078 8.07967 13.4424L8.92033 12.9008ZM8.5 12.6716L8.5 13.1716L8 13.1716L8 12.6716L8.5 12.6716Z">
</path>
</svg>
