<svg xmlns="http://www.w3.org/2000/svg" xmlns:xlink="http://www.w3.org/1999/xlink" width="24" height="24" viewBox="0 0 24 24" fill="none">
<path   fill="rgba(21, 21, 21, 1)" style="mix-blend-mode:normal" d="M9.64645 13.3536L7.64645 11.3536L7.64645 10.6464L9.64645 8.64645L10.3536 9.35355L8.35355 11.3536L8 11L8.35355 10.6464L10.3536 12.6464L9.64645 13.3536ZM7.64645 10.6464L8 11L7.64645 11.3536C7.55075 11.2551 7.50193 11.1373 7.5 11C7.50193 10.8627 7.55075 10.7449 7.64645 10.6464Z">
</path>
<path   fill="rgba(21, 21, 21, 1)" style="mix-blend-mode:normal" d="M11.5556 14.5L13.7778 14.5L13.7778 15L13.7778 14.5L13.7778 15L13.7778 14.5Q14.5064 14.5 15.0146 14.0426Q15.5 13.6057 15.5 13L16 13L15.5 13L16 13L15.5 13Q15.5 12.3943 15.0146 11.9574Q14.5064 11.5 13.7778 11.5L13.7778 11L13.7778 11.5L8 11.5L8 10.5L13.7778 10.5L13.7778 10.5Q14.3218 10.5 14.8206 10.6899Q15.3067 10.8749 15.6836 11.2141Q16.0662 11.5585 16.2779 12.0088Q16.5 12.4815 16.5 13L16.5 13L16.5 13Q16.5 13.5185 16.2779 13.9912Q16.0662 14.4415 15.6836 14.7859Q15.3067 15.1251 14.8206 15.3101Q14.3218 15.5 13.7778 15.5L13.7778 15.5L13.7778 15.5L11.5556 15.5L11.5556 14.5Z">
</path>
</svg>
